<svg width="800" height="800" xmlns="http://www.w3.org/2000/svg">

 <g>
  <title>Layer 1</title>
  <g id="svg_12">
   <g transform="rotate(90 655 141.253)" id="svg_10">
    <line opacity="undefined" stroke="#ff8300" stroke-width="25" stroke-linecap="undefined" stroke-linejoin="undefined" id="svg_8" y2="38.75335" x2="540.00107" y1="38.75335" x1="770.00282" fill="none"/>
    <line transform="rotate(90 552.499 141.254)" opacity="undefined" stroke="#ff8300" stroke-width="25" stroke-linecap="undefined" stroke-linejoin="undefined" id="svg_9" y2="141.25413" x2="437.50029" y1="141.25413" x1="667.50204" fill="none"/>
   </g>
   <g id="svg_11">
    <line opacity="undefined" stroke="#ff8300" stroke-width="25" stroke-linecap="undefined" stroke-linejoin="undefined" id="svg_2" y2="38.75335" x2="27.49716" y1="38.75335" x1="257.49891" fill="none"/>
    <line transform="rotate(90 39.9973 141.254)" opacity="undefined" stroke="#ff8300" stroke-width="25" stroke-linecap="undefined" stroke-linejoin="undefined" id="svg_7" y2="141.25413" x2="-75.00362" y1="141.25413" x1="154.99813" fill="none"/>
   </g>
  </g>
  <g id="svg_19">
   <g transform="rotate(90 655 141.253)" id="svg_15">
    <line opacity="undefined" stroke="#ff8300" stroke-width="25" stroke-linecap="undefined" stroke-linejoin="undefined" id="svg_13" y2="38.75335" x2="540.00107" y1="38.75335" x1="770.00282" fill="none"/>
    <line transform="rotate(90 552.499 141.254)" opacity="undefined" stroke="#ff8300" stroke-width="25" stroke-linecap="undefined" stroke-linejoin="undefined" id="svg_14" y2="141.25413" x2="437.50029" y1="141.25413" x1="667.50204" fill="none"/>
   </g>
   <g id="svg_18">
    <line opacity="undefined" stroke="#ff8300" stroke-width="25" stroke-linecap="undefined" stroke-linejoin="undefined" id="svg_16" y2="38.75335" x2="27.49716" y1="38.75335" x1="257.49891" fill="none"/>
    <line transform="rotate(90 39.9973 141.254)" opacity="undefined" stroke="#ff8300" stroke-width="25" stroke-linecap="undefined" stroke-linejoin="undefined" id="svg_17" y2="141.25413" x2="-75.00362" y1="141.25413" x1="154.99813" fill="none"/>
   </g>
  </g>
  <g transform="rotate(180 398.748 658.756)" id="svg_26">
   <g transform="rotate(90 655 658.754)" id="svg_22">
    <line opacity="undefined" stroke="#ff8300" stroke-width="25" stroke-linecap="undefined" stroke-linejoin="undefined" id="svg_20" y2="556.2573" x2="540.00107" y1="556.2573" x1="770.00282" fill="none"/>
    <line transform="rotate(90 552.499 658.755)" opacity="undefined" stroke="#ff8300" stroke-width="25" stroke-linecap="undefined" stroke-linejoin="undefined" id="svg_21" y2="658.75809" x2="437.50029" y1="658.75809" x1="667.50204" fill="none"/>
   </g>
   <g id="svg_25">
    <line opacity="undefined" stroke="#ff8300" stroke-width="25" stroke-linecap="undefined" stroke-linejoin="undefined" id="svg_23" y2="556.2573" x2="27.49716" y1="556.2573" x1="257.49891" fill="none"/>
    <line transform="rotate(90 39.9973 658.755)" opacity="undefined" stroke="#ff8300" stroke-width="25" stroke-linecap="undefined" stroke-linejoin="undefined" id="svg_24" y2="658.75809" x2="-75.00362" y1="658.75809" x1="154.99813" fill="none"/>
   </g>
  </g>
 </g>
</svg>